<?xml version="1.0" encoding="UTF-8" standalone="no"?>
<!-- Created with Inkscape (http://www.inkscape.org/) -->

<svg
   width="53.195446"
   height="45.354332"
   viewBox="0 0 14.074628 12"
   version="1.1"
   id="svg1"
   xmlns="http://www.w3.org/2000/svg"
   xmlns:svg="http://www.w3.org/2000/svg">
  <defs
     id="defs1" />
  <g
     id="layer1"
     transform="translate(-53.68193,-45.606859)">
    <g
       id="g3611-1-59"
       transform="matrix(0.07312789,0,0,0.07312789,71.911944,42.450012)"
       style="display:inline;stroke-width:1.00509;stroke-dasharray:none">
      <path
         style="fill:#fcbe25;stroke-width:1.00509;stroke-dasharray:none"
         d="m -186.69177,207.08188 0.46805,-0.12197 0.3257,0.13177 0.32569,0.13178 -0.79375,-0.01 -0.79375,-0.01 z m 8.87504,-0.52655 0.34727,-0.13897 0.15985,0.15986 0.15985,0.15985 -0.50712,-0.0209 -0.50712,-0.0209 z m -30.3357,-4.31718 v -0.66146 l 0.13346,0.33073 0.13345,0.33073 -0.13345,0.33073 -0.13346,0.33073 z m 52.84036,-8.87373 -2.28348,-0.35581 -1.61779,-0.41921 -1.6178,-0.41922 -2.84559,-0.94719 -2.8456,-0.94719 -3.175,-1.53571 -3.175,-1.53571 -2.24896,-1.36818 -2.24896,-1.36818 -2.38869,-1.81008 -2.3887,-1.81007 -2.38291,-2.46788 -2.38292,-2.46788 -1.24446,-1.74891 -1.24446,-1.7489 -1.04346,-2.08755 -1.04347,-2.08756 -0.55115,-1.98437 -0.55115,-1.98437 -0.27788,-2.4715 -0.27789,-2.47149 0.27305,-2.68788 0.27304,-2.68788 0.53252,-2.07174 0.53253,-2.07173 0.90908,-2.22979 0.90907,-2.2298 1.49687,-2.37229 1.49687,-2.37229 1.79637,-1.66056 1.79637,-1.66055 1.06121,-0.5934 1.06122,-0.59339 -0.63365,1.74568 -0.63365,1.74568 -0.15844,1.89042 -0.15845,1.89042 0.44679,3.03724 0.44679,3.03724 0.93991,2.91589 0.93991,2.91588 1.16841,2.50677 1.1684,2.50677 1.4842,2.48726 1.48421,2.48726 1.90154,2.5466 1.90154,2.54659 2.38739,2.64583 2.3874,2.64584 2.08853,1.87075 2.08853,1.87076 2.11667,1.67868 2.11666,1.67869 2.70065,1.78426 2.70064,1.78426 3.64936,1.85001 3.64935,1.85001 2.51354,0.84693 2.51355,0.84694 0.39687,0.13445 0.39688,0.13444 -1.45521,0.51625 -1.45521,0.51625 -1.9415,0.38064 -1.94151,0.38064 -3.61474,-0.0256 -3.61475,-0.0256 z m -52.86124,-6.89102 0.0209,-0.50712 0.13897,0.34726 0.13896,0.34727 -0.15985,0.15985 -0.15985,0.15985 z m 99.85931,-3.02066 1.03344,-1.05834 h 0.13229 0.13229 l -1.03344,1.05834 -1.03343,1.05833 h -0.13229 -0.13229 z m 1.45521,-1.42282 v -0.0999 l 0.46302,-0.36313 0.46302,-0.36312 -0.36312,0.46302 -0.36313,0.46302 h -0.0999 -0.0999 z m -25.28989,-10.21231 -1.08052,-0.22852 -2.09448,-0.69369 -2.09448,-0.69369 -2.91042,-1.42671 -2.91042,-1.42671 -2.38125,-1.55505 -2.38125,-1.55506 -2.64583,-2.26685 -2.64583,-2.26686 -1.47089,-1.68576 -1.47088,-1.68576 -1.08093,-1.45521 -1.08093,-1.45521 -1.31787,-2.31274 -1.31787,-2.31273 -0.94044,-2.84664 -0.94044,-2.84664 -0.28311,-2.06967 -0.2831,-2.06966 v -1.30377 -1.30378 h 0.6698 0.66981 l 1.6453,0.54706 1.6453,0.54706 1.85208,1.0909 1.85208,1.09089 6.35,4.26131 6.35,4.2613 3.78155,2.06807 3.78155,2.06807 4.15595,1.70642 4.15595,1.70642 3.25115,1.06908 3.25115,1.06908 0.91604,0.86393 0.91604,0.86394 v 1.03765 1.03765 l -0.41063,1.57694 -0.41062,1.57694 -0.84615,1.67764 -0.84614,1.67764 -0.87101,1.02323 -0.871,1.02323 -1.75396,0.86347 -1.75397,0.86347 -2.53441,0.0589 -2.5344,0.0589 z m 42.567094,-29.63987 v -1.45521 l 0.11022,0.7276 0.11023,0.72761 -0.11023,0.7276 -0.11022,0.72761 z m -17.358274,-7.66996 -2.33003,-0.22566 -2.08085,-0.42164 -2.08086,-0.42163 -2.60057,-0.74926 -2.60058,-0.74925 -2.51354,-1.00195 -2.51354,-1.00196 -2.10019,-1.05102 -2.10019,-1.05102 -2.12279,-1.3166 -2.1228,-1.3166 -2.12702,-1.66488 -2.12701,-1.66488 -2.38482,-2.4807 -2.38482,-2.4807 -1.23859,-1.74673 -1.23859,-1.74673 -1.21281,-2.35431 -1.21281,-2.35431 -0.78441,-2.44506 -0.78442,-2.44506 -0.39864,-2.28595 -0.39863,-2.285961 v -3.49059 -3.490592 l 0.42605,-2.494019 0.42605,-2.49402 0.89735,-2.747103 0.89734,-2.747102 1.20383,-2.458337 1.20383,-2.458337 1.81575,-2.73206 1.81575,-2.73206 2.11347,-2.263942 2.11348,-2.263942 1.81178,-1.478597 1.81178,-1.478597 2.01021,-1.328049 2.01021,-1.328049 2.61999,-1.305575 2.62,-1.305574 1.85209,-0.684549 1.85208,-0.684548 1.87469,-0.544296 1.87468,-0.544296 3.28469,-0.5605 3.28469,-0.5605 4.36562,0.13692 4.365634,0.13692 2.32789,0.432984 2.32789,0.432985 2.57424,0.875393 2.57423,0.875393 2.50621,1.213724 2.5062,1.213725 1.5055,1.008569 1.5055,1.008568 2.15808,1.705485 2.15807,1.705486 1.986512,2.263264 1.986515,2.263265 1.682965,2.524978 1.682966,2.524978 1.183888,2.502105 1.183887,2.502105 0.817953,2.445143 0.817953,2.445144 0.575768,2.581939 0.575768,2.58194 0.0106,5.688541 0.0106,5.688541 -0.475694,2.34051 -0.475695,2.34051 -0.894064,2.72933 -0.894065,2.72934 -1.074399,2.25109 -1.0744,2.25108 -1.641732,2.46866 -1.641733,2.46865 -2.660366,2.66036 -2.660367,2.66037 -2.4562,1.63341 -2.4562,1.6334 -1.90942,0.91764 -1.90943,0.91764 -2.77812,0.92413 -2.77813,0.92412 -2.38125,0.41468 -2.38125,0.41468 -3.439584,0.11253 -3.43958,0.11253 z m -10.36997,-35.023931 1.32291,-0.61996 1.23607,-1.32836 1.23607,-1.32835 0.78337,-1.55482 0.78336,-1.554828 0.70963,-2.248958 0.70962,-2.248958 0.39759,-1.852084 0.39759,-1.852083 0.15151,-2.929607 0.1515,-2.929607 -0.44334,-1.992712 -0.44334,-1.992713 -0.85044,-1.417199 -0.85044,-1.4172 -1.05833,-0.720433 -1.05833,-0.720432 -1.10935,-0.282236 -1.10935,-0.282235 h -0.93125 -0.93124 l -1.46819,0.549319 -1.46819,0.54932 -1.26117,1.236618 -1.26117,1.236618 -1.1028,2.129722 -1.1028,2.129723 -0.66645,2.299778 -0.66645,2.299778 -0.2759,2.714249 -0.2759,2.714249 0.26347,2.076513 0.26347,2.076514 0.29459,1.094056 0.2946,1.094058 0.63415,1.25143 0.63415,1.25144 0.85846,0.97773 0.85847,0.97773 1.32484,0.61695 1.32484,0.616951 h 1.19063 1.19062 z m -82.99648,32.458981 0.34726,-0.13896 0.15986,0.15985 0.15985,0.15985 -0.50712,-0.0209 -0.50712,-0.0209 z m 131.679813,-3.52342 0.478889,-0.52917 h 0.132292 0.132292 l -0.47889,0.52917 -0.478889,0.52916 h -0.132291 -0.132292 z m -89.983473,-28.11198 -0.50403,-0.595311 0.59532,0.504021 0.59531,0.50403 v 0.0913 0.0913 h -0.0913 -0.0913 z m 101.588229,-2.579691 v -2.51354 l 0.0991,1.25677 0.0991,1.25677 -0.0991,1.25677 -0.0991,1.256771 z m -146.338779,-14.20627 0.46806,-0.121969 0.32569,0.131773 0.32569,0.131774 -0.79375,-0.0098 -0.79375,-0.0098 z m 7.81671,0.0026 0.34726,-0.138965 0.15986,0.159853 0.15985,0.159852 -0.50712,-0.02089 -0.50712,-0.02089 z m -2.64584,-7.672917 0.34727,-0.138964 0.15985,0.159853 0.15986,0.159852 -0.50712,-0.02089 -0.50712,-0.02089 z m 46.60204,-11.923946 -0.9118,-0.992187 0.99218,0.911798 0.99219,0.911798 v 0.08039 0.08039 h -0.0804 -0.0804 z m 79.884656,-0.79375 -0.363126,-0.463021 0.463021,0.363126 0.463021,0.363126 v 0.0999 0.0999 h -0.0999 -0.0999 z"
         id="path3612-7-1" />
      <path
         style="fill:#111111;fill-opacity:1;stroke-width:1.00509;stroke-dasharray:none"
         d="m -204.84585,206.8793 -1.01727,-0.36271 -0.66151,-0.61786 -0.66152,-0.61787 -0.42469,-0.79375 -0.4247,-0.79375 -0.10929,-7.1859 -0.10929,-7.18589 0.3094,-4.0589 0.3094,-4.05889 0.51831,-3.83646 0.51831,-3.83646 0.41433,-2.24896 0.41432,-2.24896 0.88748,-3.70416 0.88747,-3.70417 0.96364,-3.175 0.96364,-3.175 1.46645,-3.70416 1.46645,-3.70417 1.42348,-2.83986 1.42349,-2.83987 v -0.10045 -0.10045 l -2.57969,-0.18907 -2.57969,-0.18908 -2.91041,-0.52376 -2.91042,-0.52376 -2.64583,-0.62533 -2.64584,-0.62534 -2.88573,-0.96567 -2.88574,-0.96568 -2.6687,-1.06321 -2.66871,-1.0632 -3.70597,-1.85072 -3.70598,-1.85072 -3.30729,-2.21193 -3.30729,-2.21192 -2.15898,-1.93312 -2.15899,-1.93311 -1.56572,-1.87469 -1.56572,-1.87468 -0.95767,-1.5765 -0.95767,-1.57649 -0.57184,-1.31132 -0.57183,-1.31132 -0.53141,-1.71979 -0.53141,-1.71979 -0.0115,-3.30729 -0.0115,-3.3073 0.45377,-1.71979 0.45378,-1.71979 1.2903,-2.645831 1.2903,-2.64583 1.86062,-2.270694 1.86062,-2.270689 2.32469,-1.927512 2.3247,-1.927512 3.09504,-1.831656 3.09504,-1.831656 2.83504,-1.187775 2.83503,-1.187775 2.27201,-0.803469 2.27201,-0.803469 3.57187,-0.910688 3.57188,-0.910689 3.57187,-0.515255 3.57188,-0.515255 3.175,-0.169321 3.175,-0.169322 3.57187,0.280953 3.57188,0.280953 2.3515,0.413427 2.3515,0.413428 0.10997,-0.109976 0.10998,-0.109977 -1.21325,-1.875488 -1.21325,-1.875489 -1.04095,-2.594588 -1.04095,-2.594587 -0.73096,-2.902128 -0.73096,-2.902127 0.009,-4.497917 0.009,-4.497916 0.5822,-1.566358 0.5822,-1.566358 0.64154,-1.094694 0.64153,-1.094694 1.22794,-1.131877 1.22794,-1.131876 1.65991,-0.776766 1.65991,-0.776765 1.95949,-0.418608 1.95949,-0.418607 3.30729,0.154035 3.30729,0.154035 2.29416,0.518684 2.29415,0.518685 2.40868,0.806979 2.40867,0.806979 2.82844,1.33417 2.82843,1.334169 2.91978,1.94707 2.91977,1.94707 2.32574,2.179405 2.32574,2.179406 1.54137,1.886322 1.54137,1.886322 1.5114,2.342868 1.5114,2.342868 0.70691,-0.642261 0.7069,-0.642261 1.71402,-1.517908 1.71402,-1.517907 2.91619,-1.958061 2.91619,-1.95806 3.51249,-1.735553 3.51248,-1.735552 3.49897,-1.166881 3.49898,-1.166881 3.57187,-0.712613 3.57187,-0.712614 4.8948,-0.133423 4.89479,-0.133424 3.042714,0.440873 3.0427,0.440872 2.91308,0.754809 2.91308,0.754808 2.77546,1.099885 2.77547,1.099886 2.51085,1.321511 2.51086,1.321512 2.51622,1.692121 2.516233,1.692122 2.564373,2.329392 2.564374,2.329393 1.572043,1.855324 1.572042,1.855323 1.460282,2.18168 1.460282,2.18168 1.214245,2.351002 1.214245,2.351002 0.889984,2.343244 0.889984,2.343244 0.699049,2.66526 0.699049,2.665259 0.395859,2.626407 0.39586,2.626407 8.14e-4,4.365628 8.15e-4,4.365621 -0.289903,2.38125 -0.289902,2.38125 -0.736815,2.9263 -0.736815,2.92629 -1.106263,2.76225 -1.106263,2.76224 -1.315231,2.38125 -1.31523,2.38125 -1.69502,2.27017 -1.69502,2.27017 -2.198211,2.22816 -2.198211,2.22816 -2.180397,1.63914 -2.180398,1.63915 -1.656064,0.9706 -1.65606,0.9706 -2.59645,1.16694 -2.59644,1.16695 -2.46064,0.84183 -2.46064,0.84183 -0.15169,3.98003 -0.15169,3.98002 -0.43121,2.38125 -0.43121,2.38125 -0.63493,2.26899 -0.63493,2.26899 -0.90619,2.37461 -0.90618,2.3746 -1.30882,2.63245 -1.30882,2.63244 -1.54365,2.49514 -1.54366,2.49513 -1.786834,2.37621 -1.78684,2.3762 -1.93571,2.14012 -1.93571,2.14012 -2.64804,2.44484 -2.64805,2.44484 -2.76286,1.99576 -2.76287,1.99576 -2.94637,1.71094 -2.94637,1.71094 -3.2866,1.47789 -3.28659,1.47788 -3.92181,1.31223 -3.9218,1.31222 -4.28028,1.03511 -4.28028,1.0351 -4.96651,0.93709 -4.9665,0.93709 -5.48454,0.78624 -5.48453,0.78624 -5.82084,0.53021 -5.82083,0.53021 -4.89479,0.27111 -4.89479,0.27112 -7.40833,-0.0115 -7.40834,-0.0115 z m 60.98827,-13.48845 1.9415,-0.38064 1.45521,-0.51625 1.45521,-0.51625 -0.39688,-0.13444 -0.39687,-0.13445 -2.51355,-0.84694 -2.51354,-0.84693 -3.64935,-1.85001 -3.64936,-1.85001 -2.70064,-1.78426 -2.70065,-1.78426 -2.11666,-1.67869 -2.11667,-1.67868 -2.08853,-1.87076 -2.08853,-1.87075 -2.3874,-2.64584 -2.38739,-2.64583 -1.90154,-2.54659 -1.90154,-2.5466 -1.48421,-2.48726 -1.4842,-2.48726 -1.1684,-2.50677 -1.16841,-2.50677 -0.93991,-2.91588 -0.93991,-2.91589 -0.44679,-3.03724 -0.44679,-3.03724 0.15845,-1.89042 0.15844,-1.89042 0.63365,-1.74568 0.63365,-1.74568 -1.06122,0.59339 -1.06121,0.5934 -1.79637,1.66055 -1.79637,1.66056 -1.49687,2.37229 -1.49687,2.37229 -0.90907,2.2298 -0.90908,2.22979 -0.53253,2.07173 -0.53252,2.07174 -0.27304,2.68788 -0.27305,2.68788 0.27789,2.47149 0.27788,2.4715 0.55115,1.98437 0.55115,1.98437 1.04347,2.08756 1.04346,2.08755 1.24446,1.7489 1.24446,1.74891 2.38292,2.46788 2.38291,2.46788 2.3887,1.81007 2.38869,1.81008 2.24896,1.36818 2.24896,1.36818 3.175,1.53571 3.175,1.53571 2.8456,0.94719 2.84559,0.94719 1.6178,0.41922 1.61779,0.41921 2.28348,0.35581 2.28349,0.35581 3.61475,0.0256 3.61474,0.0256 z m 19.6122,-22.32603 1.75396,-0.86347 0.871,-1.02323 0.87101,-1.02323 0.84614,-1.67764 0.84615,-1.67764 0.41062,-1.57694 0.41063,-1.57694 v -1.03765 -1.03765 l -0.91604,-0.86394 -0.91604,-0.86393 -3.25115,-1.06908 -3.25115,-1.06908 -4.15595,-1.70642 -4.15595,-1.70642 -3.78155,-2.06807 -3.78155,-2.06807 -6.35,-4.2613 -6.35,-4.26131 -1.85208,-1.09089 -1.85208,-1.0909 -1.6453,-0.54706 -1.6453,-0.54706 h -0.66981 -0.6698 v 1.30378 1.30377 l 0.2831,2.06966 0.28311,2.06967 0.94044,2.84664 0.94044,2.84664 1.31787,2.31273 1.31787,2.31274 1.08093,1.45521 1.08093,1.45521 1.47088,1.68576 1.47089,1.68576 2.64583,2.26686 2.64583,2.26685 2.38125,1.55506 2.38125,1.55505 2.91042,1.42671 2.91042,1.42671 2.09448,0.69369 2.09448,0.69369 1.08052,0.22852 1.08052,0.22851 2.5344,-0.0589 2.53441,-0.0589 z m 28.895964,-36.97112 2.38125,-0.41468 2.77813,-0.92412 2.77812,-0.92413 1.90943,-0.91764 1.90942,-0.91764 2.4562,-1.6334 2.4562,-1.63341 2.660369,-2.66037 2.660366,-2.66036 1.641733,-2.46865 1.641732,-2.46866 1.0744,-2.25108 1.074399,-2.25109 0.894065,-2.72934 0.894064,-2.72933 0.475695,-2.34051 0.475694,-2.34051 -0.0106,-5.688541 -0.0106,-5.688541 -0.575768,-2.58194 -0.575768,-2.581939 -0.817953,-2.445144 -0.817953,-2.445143 -1.183887,-2.502105 -1.183888,-2.502105 -1.682966,-2.524978 -1.682965,-2.524978 -1.986515,-2.263265 -1.986514,-2.263264 -2.15807,-1.705486 -2.15808,-1.705485 -1.5055,-1.008568 -1.5055,-1.008569 -2.5062,-1.213725 -2.50621,-1.213724 -2.57423,-0.875393 -2.57424,-0.875393 -2.32789,-0.432985 -2.32789,-0.432984 -4.365634,-0.13692 -4.36562,-0.13692 -3.28469,0.5605 -3.28469,0.5605 -1.87468,0.544296 -1.87469,0.544296 -1.85208,0.684548 -1.85209,0.684549 -2.62,1.305574 -2.61999,1.305575 -2.01021,1.328049 -2.01021,1.328049 -1.81178,1.478597 -1.81178,1.478597 -2.11348,2.263942 -2.11347,2.263942 -1.81575,2.73206 -1.81575,2.73206 -1.20383,2.458337 -1.20383,2.458337 -0.89734,2.747102 -0.89735,2.747103 -0.42605,2.49402 -0.42605,2.494019 v 3.490592 3.49059 l 0.39863,2.285961 0.39864,2.28595 0.78442,2.44506 0.78441,2.44506 1.21281,2.35431 1.21281,2.35431 1.23859,1.74673 1.23859,1.74673 2.38482,2.4807 2.38482,2.4807 2.12701,1.66488 2.12702,1.66488 2.1228,1.3166 2.12279,1.3166 2.10019,1.05102 2.10019,1.05102 2.51354,1.00196 2.51354,1.00195 2.60058,0.74925 2.60057,0.74926 2.08086,0.42163 2.08085,0.42164 2.33003,0.22566 2.33003,0.22566 3.43958,-0.11253 3.439584,-0.11253 z m -26.989424,-34.606831 -1.32484,-0.61695 -0.85847,-0.97773 -0.85846,-0.97773 -0.63415,-1.25144 -0.63415,-1.25143 -0.2946,-1.094058 -0.29459,-1.094056 -0.26347,-2.076514 -0.26347,-2.076513 0.2759,-2.714249 0.2759,-2.714249 0.66645,-2.299778 0.66645,-2.299778 1.1028,-2.129723 1.1028,-2.129722 1.26117,-1.236618 1.26117,-1.236618 1.46819,-0.54932 1.46819,-0.549319 h 0.93124 0.93125 l 1.10935,0.282235 1.10935,0.282236 1.05833,0.720432 1.05833,0.720433 0.85044,1.4172 0.85044,1.417199 0.44334,1.992713 0.44334,1.992712 -0.1515,2.929607 -0.15151,2.929607 -0.39759,1.852083 -0.39759,1.852084 -0.70962,2.248958 -0.70963,2.248958 -0.78336,1.554828 -0.78337,1.55482 -1.23607,1.32835 -1.23607,1.32836 -1.32291,0.61996 -1.32292,0.619971 h -1.19062 -1.19063 z m -65.66286,32.211031 2.95854,-0.42568 3.03793,-0.77616 3.03792,-0.77616 2.38603,-0.94217 2.38603,-0.94216 2.15538,-1.13281 2.15538,-1.13281 2.72622,-1.79758 2.72621,-1.79758 2.81139,-2.79696 2.81139,-2.79697 0.99759,-1.53841 0.99759,-1.53842 0.69469,-1.63658 0.6947,-1.63659 0.007,-2.38125 0.007,-2.38125 -0.68756,-1.4552 -0.68755,-1.45521 -1.0559,-1.32754 -1.0559,-1.327531 -4.08119,-3.08238 -4.08119,-3.082373 -2.6332,-1.655003 -2.63321,-1.655004 -2.91923,-1.387265 -2.91924,-1.387265 -1.85208,-0.697348 -1.85208,-0.697348 -2.91042,-0.773054 -2.91041,-0.773055 -2.64584,-0.456558 -2.64583,-0.456559 -6.35,-0.0011 -6.35,-0.0011 -3.43958,0.590443 -3.43959,0.590444 -2.92492,0.762523 -2.92493,0.762524 -2.63132,0.978164 -2.63133,0.978165 -2.40984,1.14865 -2.40985,1.148649 -2.35265,1.577765 -2.35266,1.577764 -1.821,1.809191 -1.82101,1.8092 -0.88347,1.32291 -0.88347,1.32292 -0.69354,1.708881 -0.69354,1.70888 -0.14044,1.863 -0.14044,1.86299 0.43061,1.71979 0.4306,1.71979 0.93023,1.85208 0.93022,1.85209 1.68663,1.98437 1.68663,1.98438 2.3459,1.89618 2.3459,1.89619 1.73281,1.05272 1.73282,1.05272 2.62999,1.31883 2.62999,1.31884 3.61372,1.35337 3.61372,1.35337 3.79461,0.92434 3.79462,0.92434 2.77812,0.37265 2.77813,0.37264 4.71437,0.0272 4.71437,0.0272 z m 31.65691,-39.460265 0.32101,-2.579687 0.87819,-3.439583 0.87818,-3.439583 0.84083,-2.116667 0.84083,-2.116666 1.2985,-2.529129 1.29851,-2.529128 1.43246,-2.0843 1.43245,-2.084299 -0.69732,-0.942822 -0.69732,-0.942822 -1.54673,-1.921029 -1.54674,-1.921028 -2.12119,-1.836012 -2.12118,-1.836012 -2.55589,-1.71363 -2.55588,-1.713631 -2.50067,-1.240887 -2.50067,-1.240887 -2.3366,-0.902394 -2.33659,-0.902394 -2.83565,-0.704576 -2.83565,-0.704576 -3.0609,-0.01585 -3.0609,-0.01585 -1.55398,0.794468 -1.55397,0.794468 -0.663,1.288327 -0.66299,1.288326 -0.11089,2.319296 -0.11089,2.319295 0.43512,2.552669 0.43512,2.552669 0.68558,2.173365 0.68558,2.173366 0.97215,2.248958 0.97215,2.248958 0.93989,1.455209 0.9399,1.455208 1.56226,1.955096 1.56227,1.955096 2.45621,2.050862 2.45621,2.050861 4.26825,2.608625 4.26825,2.608626 3.85887,2.572007 3.85887,2.572001 0.0335,0.008 0.0335,0.008 z"
         id="path3611-1-3" />
      <path
         style="fill:#f9f9f9;fill-opacity:1;stroke:#000000;stroke-width:3.79875;stroke-dasharray:none;stroke-opacity:0"
         d="M 176.91348,565.81971 C 109.57222,548.17443 64.670072,511.99021 64.670072,475.3688 c 0,-26.92523 31.282333,-54.19953 82.633978,-72.04655 19.61983,-6.81878 30.8196,-8.11298 70.05925,-8.09575 42.36059,0.0186 48.805,0.90288 69.26448,9.5043 30.49607,12.82092 59.38022,30.57852 78.41872,48.2108 24.72078,22.89486 21.48005,42.64074 -12.16308,74.10995 -43.88076,41.04531 -110.91635,55.814 -175.96994,38.76816 z"
         id="path3613-3-8"
         transform="matrix(0.26458333,0,0,0.26458333,-256.65935,-19.962394)" />
      <path
         style="fill:#ffffff;fill-opacity:1;stroke:#000000;stroke-width:3.79875;stroke-dasharray:none;stroke-opacity:0"
         d="m 346.55165,410.957 c -15.72475,-9.63319 -35.57222,-24.03535 -44.10549,-32.0048 -19.21406,-17.94452 -33.9164,-49.01649 -35.89359,-75.85764 -1.27522,-17.31161 -0.32974,-21.41816 6.50481,-28.25271 6.99009,-6.9901 10.3202,-7.6911 26.45035,-5.5679 33.4588,4.40414 79.73585,29.6414 101.04756,55.10644 l 9.88244,11.80836 -11.32687,21.25138 c -6.22978,11.68826 -14.17129,32.45197 -17.6478,46.14158 l -6.32094,24.8902 z"
         id="path3614-4-8"
         transform="matrix(0.26458333,0,0,0.26458333,-256.65935,-19.962394)" />
      <path
         style="fill:#ffffff;fill-opacity:1;stroke:#000000;stroke-width:3.79875;stroke-dasharray:none;stroke-opacity:0"
         d="M 192.21383,567.84299 C 150.05413,559.85356 108.19127,540.56874 86.994491,519.37196 73.141048,505.51852 63.648405,481.68856 66.610703,468.2013 c 2.427196,-11.05095 28.186321,-43.46715 31.727037,-39.92643 1.150056,1.15006 3.10685,-0.55623 4.34844,-3.79175 1.24159,-3.23553 3.57443,-5.06882 5.18409,-4.07399 1.60967,0.99483 5.48214,-0.74669 8.60549,-3.87005 3.12335,-3.12335 5.67882,-4.69808 5.67882,-3.49939 0,1.19868 3.63769,0.15889 8.08376,-2.31065 4.44607,-2.46954 8.89214,-4.64384 9.88015,-4.83178 0.98802,-0.18794 10.68853,-2.41949 21.55669,-4.959 13.00229,-3.03818 35.11943,-4.05414 64.67007,-2.97064 47.34481,1.73593 51.1607,2.27614 63.29949,8.9613 4.18625,2.30548 8.63232,3.17083 9.88015,1.923 1.24783,-1.24783 2.26878,-0.49152 2.26878,1.68069 0,3.75922 10.47696,8.89447 14.45545,7.08531 1.03439,-0.47038 5.78532,2.78246 10.55761,7.22853 4.77229,4.44606 10.39298,8.10733 12.49041,8.13613 2.09744,0.0288 12.48491,8.92135 23.08327,19.76121 17.409,17.80568 19.05113,20.83627 17.00572,31.38446 -1.24521,6.4216 -2.50649,13.31594 -2.80283,15.32075 -0.59892,4.05179 -38.67065,42.26249 -44.28388,44.44552 -11.61674,4.51784 -19.7274,9.04133 -19.7274,11.0024 0,1.23834 -3.61375,2.52375 -8.03055,2.85645 -4.4168,0.33271 -8.59677,2.30359 -9.28881,4.37973 -0.69205,2.07614 -2.73694,2.86094 -4.54419,1.74399 -1.80726,-1.11695 -5.27844,-0.79937 -7.71374,0.70573 -11.05967,6.83525 -62.22011,8.67255 -90.7809,3.26017 z"
         id="path3615-8-9"
         transform="matrix(0.26458333,0,0,0.26458333,-256.65935,-19.962394)" />
      <path
         style="fill:#ffffff;fill-opacity:1;stroke:#000000;stroke-width:3.79875;stroke-dasharray:none;stroke-opacity:0"
         d="m 346.55165,410.957 c -15.72475,-9.63319 -35.57222,-24.03535 -44.10549,-32.0048 -19.21406,-17.94452 -33.9164,-49.01649 -35.89359,-75.85764 -1.27708,-17.33688 -0.33413,-21.41378 6.5436,-28.29151 6.87235,-6.87234 10.58574,-7.73369 25.64963,-5.94959 32.35142,3.83154 80.54196,30.11468 101.80949,55.52693 l 9.88244,11.80836 -11.32687,21.25138 c -6.22978,11.68826 -14.17129,32.45197 -17.6478,46.14158 l -6.32094,24.8902 z"
         id="path3616-6-4"
         transform="matrix(0.26458333,0,0,0.26458333,-256.65935,-19.962394)" />
    </g>
  </g>
</svg>
