<?xml version="1.0" encoding="UTF-8" standalone="no"?>
<!-- Created with Inkscape (http://www.inkscape.org/) -->

<svg
   width="249.54575"
   height="45.354332"
   viewBox="0 0 66.025643 12"
   version="1.1"
   id="svg1"
   xmlns="http://www.w3.org/2000/svg"
   xmlns:svg="http://www.w3.org/2000/svg">
  <defs
     id="defs1" />
  <g
     id="layer2"
     transform="translate(-28.688765,-6.8791692)">
    <g
       id="text3-5"
       style="font-weight:500;font-size:17.0697px;font-family:Fredoka;-inkscape-font-specification:'Fredoka Medium';stroke:#000000;stroke-width:0"
       aria-label="BeeBuzz">
      <path
         style="font-weight:normal;-inkscape-font-specification:Fredoka;fill:#f2b705"
         d="m 29.422763,18.79382 q -0.307255,0 -0.477952,-0.119488 -0.153627,-0.102418 -0.204836,-0.307254 -0.05121,-0.221906 -0.05121,-0.477952 V 7.7497241 q 0,-0.2560455 0.05121,-0.4438122 0.06828,-0.2048364 0.221906,-0.3072546 0.170697,-0.1194879 0.477951,-0.1194879 h 4.762447 q 0.955903,0 1.67283,0.4267425 0.733998,0.4267425 1.14367,1.1607396 0.409673,0.7339971 0.392604,1.6045515 0.01707,0.443813 -0.102419,0.870555 -0.119488,0.426743 -0.358463,0.802276 -0.221907,0.358464 -0.563301,0.597439 0.460882,0.290185 0.785207,0.751067 0.324324,0.460882 0.495021,1.024182 0.170697,0.5633 0.170697,1.17781 -0.01707,0.733997 -0.273115,1.382645 -0.256046,0.631579 -0.733997,1.109531 -0.477952,0.477951 -1.109531,0.751067 -0.631579,0.256045 -1.348506,0.256045 z m 0.802276,-1.467994 h 3.97724 q 0.665718,0 1.14367,-0.256046 0.477951,-0.256045 0.733997,-0.751066 0.256045,-0.495022 0.256045,-1.211949 0,-0.614509 -0.170697,-0.990043 -0.170697,-0.375533 -0.460882,-0.5633 -0.290184,-0.204836 -0.631578,-0.290185 -0.324325,-0.08535 -0.648649,-0.08535 -0.307255,-0.01707 -0.5633,-0.01707 h -1.041252 q -0.341394,0 -0.495021,-0.170697 -0.153627,-0.170697 -0.153627,-0.54623 0,-0.358464 0.153627,-0.512091 0.170697,-0.153628 0.512091,-0.153628 h 1.041252 q 0.273115,0 0.614509,-0.01707 0.341394,-0.01707 0.665718,-0.136558 0.341394,-0.119488 0.54623,-0.443812 0.221907,-0.341394 0.221907,-0.955903 0,-0.9559036 -0.512091,-1.3997158 -0.512091,-0.4608819 -1.689901,-0.4608819 h -3.499288 z m 13.365583,1.553343 q -1.024182,0 -1.826458,-0.341394 -0.802275,-0.341394 -1.365576,-0.921764 -0.54623,-0.59744 -0.836415,-1.365576 -0.290185,-0.768137 -0.290185,-1.655761 0,-1.177809 0.546231,-2.099573 0.54623,-0.921764 1.502133,-1.450925 0.972973,-0.54623 2.219061,-0.54623 0.853485,0 1.519204,0.273115 0.682788,0.256046 1.160739,0.699858 0.477952,0.443812 0.733997,0.990042 0.256046,0.546231 0.256046,1.092461 0,0.870555 -0.409673,1.229019 -0.409673,0.341394 -1.007112,0.341394 H 40.85947 q -0.01707,0.751066 0.392603,1.297297 0.426743,0.529161 1.058322,0.819345 0.648649,0.290185 1.297297,0.290185 0.477952,0 0.819346,-0.05121 0.341394,-0.05121 0.597439,-0.136557 0.256046,-0.08535 0.443812,-0.170697 0.187767,-0.08535 0.324325,-0.170697 0.153627,-0.08535 0.290185,-0.119488 0.153627,-0.03414 0.290185,0.03414 0.153627,0.05121 0.238975,0.221906 0.102419,0.136558 0.136558,0.256046 0.03414,0.119488 0.03414,0.256045 0,0.238976 -0.409672,0.529161 -0.409673,0.290185 -1.14367,0.495021 -0.716928,0.204837 -1.638692,0.204837 z M 40.85947,14.116722 h 4.284495 q 0.324324,0 0.477952,-0.08535 0.170697,-0.08535 0.170697,-0.460882 0,-0.477952 -0.290185,-0.853485 -0.290185,-0.392603 -0.802276,-0.631579 -0.495021,-0.238976 -1.14367,-0.238976 -0.751067,0 -1.382646,0.307255 -0.614509,0.290185 -0.972973,0.802276 -0.358463,0.512091 -0.341394,1.160739 z m 11.948807,4.762447 q -1.024182,0 -1.826458,-0.341394 -0.802276,-0.341394 -1.365576,-0.921764 -0.546231,-0.59744 -0.836416,-1.365576 -0.290185,-0.768137 -0.290185,-1.655761 0,-1.177809 0.546231,-2.099573 0.54623,-0.921764 1.502134,-1.450925 0.972972,-0.54623 2.219061,-0.54623 0.853485,0 1.519203,0.273115 0.682788,0.256046 1.160739,0.699858 0.477952,0.443812 0.733998,0.990042 0.256045,0.546231 0.256045,1.092461 0,0.870555 -0.409673,1.229019 -0.409673,0.341394 -1.007112,0.341394 h -4.933143 q -0.01707,0.751066 0.392603,1.297297 0.426742,0.529161 1.058321,0.819345 0.648649,0.290185 1.297297,0.290185 0.477952,0 0.819346,-0.05121 0.341394,-0.05121 0.597439,-0.136557 0.256046,-0.08535 0.443813,-0.170697 0.187766,-0.08535 0.324324,-0.170697 0.153627,-0.08535 0.290185,-0.119488 0.153627,-0.03414 0.290185,0.03414 0.153627,0.05121 0.238976,0.221906 0.102418,0.136558 0.136557,0.256046 0.03414,0.119488 0.03414,0.256045 0,0.238976 -0.409673,0.529161 -0.409673,0.290185 -1.14367,0.495021 -0.716928,0.204837 -1.638691,0.204837 z m -2.731152,-4.762447 h 4.284494 q 0.324325,0 0.477952,-0.08535 0.170697,-0.08535 0.170697,-0.460882 0,-0.477952 -0.290185,-0.853485 -0.290185,-0.392603 -0.802276,-0.631579 -0.495021,-0.238976 -1.14367,-0.238976 -0.751067,0 -1.382645,0.307255 -0.61451,0.290185 -0.972973,0.802276 -0.358464,0.512091 -0.341394,1.160739 z"
         id="path1" />
      <path
         style="font-weight:normal;-inkscape-font-specification:Fredoka"
         d="m 58.748549,18.79382 q -0.307254,0 -0.477951,-0.119488 -0.153628,-0.102418 -0.204837,-0.307254 -0.05121,-0.221906 -0.05121,-0.477952 V 7.7497241 q 0,-0.2560455 0.05121,-0.4438122 0.06828,-0.2048364 0.221906,-0.3072546 0.170697,-0.1194879 0.477952,-0.1194879 h 4.762446 q 0.955904,0 1.672831,0.4267425 0.733997,0.4267425 1.14367,1.1607396 0.409673,0.7339971 0.392603,1.6045515 0.01707,0.443813 -0.102418,0.870555 -0.119488,0.426743 -0.358464,0.802276 -0.221906,0.358464 -0.5633,0.597439 0.460882,0.290185 0.785206,0.751067 0.324325,0.460882 0.495022,1.024182 0.170697,0.5633 0.170697,1.17781 -0.01707,0.733997 -0.273116,1.382645 -0.256045,0.631579 -0.733997,1.109531 -0.477951,0.477951 -1.10953,0.751067 -0.631579,0.256045 -1.348507,0.256045 z m 0.802276,-1.467994 h 3.97724 q 0.665719,0 1.14367,-0.256046 0.477952,-0.256045 0.733997,-0.751066 0.256046,-0.495022 0.256046,-1.211949 0,-0.614509 -0.170697,-0.990043 -0.170697,-0.375533 -0.460882,-0.5633 -0.290185,-0.204836 -0.631579,-0.290185 -0.324324,-0.08535 -0.648648,-0.08535 -0.307255,-0.01707 -0.563301,-0.01707 H 62.14542 q -0.341394,0 -0.495022,-0.170697 -0.153627,-0.170697 -0.153627,-0.54623 0,-0.358464 0.153627,-0.512091 0.170697,-0.153628 0.512091,-0.153628 h 1.041252 q 0.273115,0 0.614509,-0.01707 0.341394,-0.01707 0.665719,-0.136558 0.341394,-0.119488 0.54623,-0.443812 0.221906,-0.341394 0.221906,-0.955903 0,-0.9559036 -0.512091,-1.3997158 -0.512091,-0.4608819 -1.6899,-0.4608819 h -3.499289 z m 12.751074,1.485064 q -0.751067,0 -1.399716,-0.273115 -0.631578,-0.273116 -1.10953,-0.768137 -0.477952,-0.495021 -0.751067,-1.194879 -0.256045,-0.699858 -0.256045,-1.587482 v -3.704125 q 0,-0.238976 0.05121,-0.409673 0.05121,-0.170697 0.204836,-0.256045 0.170697,-0.102418 0.495021,-0.102418 0.324325,0 0.477952,0.102418 0.170697,0.102418 0.221906,0.273115 0.05121,0.170697 0.05121,0.409673 v 3.704125 q 0,0.699857 0.238976,1.246088 0.238976,0.529161 0.716927,0.819345 0.495022,0.290185 1.194879,0.290185 0.716928,0 1.229019,-0.290185 0.529161,-0.290184 0.802276,-0.819345 0.290185,-0.546231 0.290185,-1.246088 v -3.721195 q 0,-0.238976 0.05121,-0.409673 0.05121,-0.170697 0.204836,-0.256045 0.170697,-0.102418 0.495021,-0.102418 0.324325,0 0.477952,0.102418 0.170697,0.102418 0.204837,0.273115 0.05121,0.170697 0.05121,0.409673 v 6.776671 q 0,0.204836 -0.05121,0.375533 -0.03414,0.153627 -0.204837,0.238976 -0.153627,0.08535 -0.477952,0.08535 -0.238975,0 -0.392603,-0.05121 -0.136557,-0.05121 -0.204836,-0.136557 -0.06828,-0.08535 -0.102418,-0.187767 -0.01707,-0.119488 -0.01707,-0.238976 l 0.06828,-0.733997 q -0.170697,0.204837 -0.409673,0.443812 -0.238976,0.238976 -0.5633,0.460882 -0.307255,0.204837 -0.699858,0.341394 -0.392603,0.136558 -0.887624,0.136558 z m 6.298709,-0.01707 q -0.358464,0 -0.5633,-0.187767 -0.187767,-0.187766 -0.187767,-0.54623 0,-0.187767 0.05121,-0.324324 0.06828,-0.153628 0.204837,-0.273115 l 5.018492,-5.428165 h -4.113798 q -0.238976,0 -0.409673,-0.03414 -0.170697,-0.05121 -0.273115,-0.221906 -0.08535,-0.170697 -0.08535,-0.495021 0,-0.341394 0.08535,-0.495021 0.102418,-0.170697 0.273115,-0.204837 0.170697,-0.05121 0.409673,-0.05121 h 5.66714 q 0.375534,0 0.5633,0.187767 0.187767,0.187767 0.187767,0.529161 0,0.170697 -0.05121,0.307254 -0.05121,0.136558 -0.136558,0.221906 l -5.018491,5.496444 h 4.677097 q 0.238976,0 0.409673,0.06828 0.170697,0.05121 0.256046,0.221906 0.08535,0.153627 0.08535,0.495021 0,0.324324 -0.102418,0.495021 -0.08535,0.153628 -0.256046,0.187767 -0.170697,0.05121 -0.409672,0.05121 z m 9.064011,0 q -0.358464,0 -0.563301,-0.187767 -0.187766,-0.187766 -0.187766,-0.54623 0,-0.187767 0.05121,-0.324324 0.06828,-0.153628 0.204836,-0.273115 l 5.018492,-5.428165 h -4.113798 q -0.238975,0 -0.409672,-0.03414 -0.170697,-0.05121 -0.273116,-0.221906 -0.08535,-0.170697 -0.08535,-0.495021 0,-0.341394 0.08535,-0.495021 0.102419,-0.170697 0.273116,-0.204837 0.170697,-0.05121 0.409672,-0.05121 h 5.667141 q 0.375533,0 0.5633,0.187767 0.187767,0.187767 0.187767,0.529161 0,0.170697 -0.05121,0.307254 -0.05121,0.136558 -0.136558,0.221906 l -5.018492,5.496444 h 4.677098 q 0.238976,0 0.409673,0.06828 0.170697,0.05121 0.256045,0.221906 0.08535,0.153627 0.08535,0.495021 0,0.324324 -0.102418,0.495021 -0.08535,0.153628 -0.256046,0.187767 -0.170697,0.05121 -0.409673,0.05121 z"
         id="path2" />
    </g>
  </g>
</svg>
