<svg xmlns="http://www.w3.org/2000/svg" width="2508.397" height="561" viewBox="0 0 2508.397 561"><g style="display:inline" transform="translate(-164.263 -734.832)"><rect width="2508.397" height="561" x="164.263" y="734.832" rx="0" ry="0" style="display:inline;fill:none;stroke:none;stroke-width:6.14952;stroke-linecap:round;stroke-linejoin:miter;stroke-dasharray:none"/><g stroke="none" aria-label="BeeBuzz" style="font-weight:500;font-size:17.0697px;font-family:Fredoka;-inkscape-font-specification:&quot;Fredoka Medium&quot;;stroke:#000;stroke-width:0"><path d="M29.423 18.794q-.307 0-.478-.12-.154-.102-.205-.307-.051-.222-.051-.478V7.75q0-.255.051-.443.068-.205.222-.307.17-.12.478-.12h4.762q.956 0 1.673.427.734.427 1.144 1.16.41.735.392 1.605.017.444-.102.87-.12.428-.358.803-.222.358-.564.597.461.29.785.752.325.46.495 1.024.171.563.171 1.178-.017.734-.273 1.382-.256.632-.734 1.11t-1.11.75q-.631.257-1.348.257zm.802-1.468h3.977q.666 0 1.144-.256t.734-.751.256-1.212q0-.615-.17-.99-.171-.376-.462-.564-.29-.204-.631-.29-.324-.085-.649-.085-.307-.017-.563-.017H32.82q-.342 0-.495-.17-.154-.172-.154-.547 0-.359.154-.512.17-.154.512-.154h1.041q.273 0 .614-.017.342-.017.666-.136.342-.12.546-.444.222-.342.222-.956 0-.956-.512-1.4-.512-.46-1.69-.46h-3.499zm13.366 1.553q-1.025 0-1.827-.341-.802-.342-1.365-.922-.547-.597-.837-1.366-.29-.768-.29-1.655 0-1.178.546-2.1t1.502-1.45q.973-.547 2.22-.547.853 0 1.519.273.682.256 1.16.7t.734.99.256 1.092q0 .871-.41 1.23-.409.34-1.006.34h-4.934q-.017.752.393 1.298.427.53 1.058.82.649.29 1.298.29.478 0 .819-.052.341-.05.597-.136.257-.085.444-.17.188-.086.325-.171.153-.086.29-.12.153-.034.29.034.154.051.239.222.102.137.137.256.034.12.034.256 0 .24-.41.53t-1.144.494q-.717.205-1.638.205zm-2.732-4.762h4.285q.324 0 .478-.086.17-.085.17-.46 0-.478-.29-.854-.29-.393-.802-.632-.495-.239-1.144-.239-.75 0-1.382.308-.615.29-.973.802-.359.512-.342 1.16zm11.95 4.762q-1.025 0-1.827-.341-.802-.342-1.366-.922-.546-.597-.836-1.366-.29-.768-.29-1.655 0-1.178.546-2.1t1.502-1.45q.973-.547 2.22-.547.853 0 1.518.273.683.256 1.161.7t.734.99.256 1.092q0 .871-.41 1.23-.41.34-1.007.34h-4.933q-.017.752.393 1.298.426.53 1.058.82.649.29 1.297.29.478 0 .82-.052.341-.05.597-.136.256-.085.444-.17t.324-.171q.154-.086.29-.12.154-.034.29.034.154.051.24.222.102.137.136.256.034.12.034.256 0 .24-.41.53-.409.29-1.143.494-.717.205-1.639.205zm-2.732-4.762h4.285q.324 0 .478-.086.17-.085.17-.46 0-.478-.29-.854-.29-.393-.802-.632-.495-.239-1.144-.239-.75 0-1.383.308-.614.29-.972.802-.359.512-.342 1.16z" style="font-weight:400;-inkscape-font-specification:Fredoka;fill:#f2b705" transform="translate(-70.396 662.438)scale(28.33333)"/><path d="M58.749 18.794q-.308 0-.478-.12-.154-.102-.205-.307-.051-.222-.051-.478V7.75q0-.255.05-.443.069-.205.223-.307.17-.12.478-.12h4.762q.956 0 1.673.427.734.427 1.144 1.16.41.735.392 1.605.017.444-.102.87-.12.428-.359.803-.222.358-.563.597.46.29.785.752.325.46.495 1.024.17.563.17 1.178-.016.734-.272 1.382-.256.632-.734 1.11t-1.11.75q-.631.257-1.348.257zm.802-1.468h3.977q.666 0 1.144-.256t.734-.751.256-1.212q0-.615-.17-.99-.172-.376-.462-.564-.29-.204-.631-.29-.325-.085-.649-.085-.307-.017-.563-.017h-1.042q-.341 0-.495-.17-.153-.172-.153-.547 0-.359.153-.512.171-.154.512-.154h1.042q.273 0 .614-.017.342-.017.666-.136.341-.12.546-.444.222-.342.222-.956 0-.956-.512-1.4-.512-.46-1.69-.46h-3.5zM72.3 18.81q-.75 0-1.399-.273-.631-.273-1.11-.768-.477-.495-.75-1.195-.256-.7-.256-1.588v-3.704q0-.239.05-.41.052-.17.206-.256.17-.102.495-.102t.478.102q.17.103.221.274.052.17.052.41v3.703q0 .7.239 1.246.239.53.717.82.495.29 1.194.29.717 0 1.23-.29.529-.29.802-.82.29-.546.29-1.246v-3.72q0-.24.051-.41.051-.171.205-.257.17-.102.495-.102t.478.102q.17.103.205.274.051.17.051.41v6.776q0 .205-.051.375-.034.154-.205.24-.154.085-.478.085-.239 0-.393-.051-.136-.052-.204-.137-.069-.085-.103-.188-.017-.12-.017-.239l.068-.734q-.17.205-.41.444-.238.239-.563.46-.307.206-.7.342t-.887.137zm6.3-.017q-.359 0-.564-.188-.187-.188-.187-.546 0-.188.05-.325.069-.153.206-.273l5.018-5.428H79.01q-.239 0-.41-.034-.17-.051-.273-.222-.085-.17-.085-.495 0-.341.085-.495.103-.17.274-.205.17-.05.41-.05h5.666q.376 0 .564.187.187.188.187.529 0 .17-.05.307-.052.137-.137.222l-5.019 5.497H84.9q.24 0 .41.068.17.051.256.222.085.153.085.495 0 .324-.102.495-.085.153-.256.188-.17.05-.41.05zm9.064 0q-.359 0-.564-.188-.187-.188-.187-.546 0-.188.05-.325.069-.153.206-.273l5.018-5.428h-4.114q-.239 0-.41-.034-.17-.051-.272-.222-.086-.17-.086-.495 0-.341.086-.495.102-.17.273-.205.17-.05.41-.05h5.666q.376 0 .564.187.187.188.187.529 0 .17-.05.307-.052.137-.137.222l-5.019 5.497h4.677q.24 0 .41.068.17.051.256.222.085.153.085.495 0 .324-.102.495-.085.153-.256.188-.17.05-.41.05z" style="font-weight:400;-inkscape-font-specification:Fredoka" transform="translate(-70.396 662.438)scale(28.33333)"/></g><g style="display:inline;stroke-width:1.00509;stroke-dasharray:none"><path d="m-186.692 207.082.468-.122.326.132.326.131-.794-.01-.794-.01zm8.875-.527.348-.139.16.16.16.16-.508-.02-.507-.022zm-30.335-4.317v-.661l.133.33.133.331-.133.33-.133.332zm52.84-8.874-2.284-.355-1.617-.42-1.618-.419-2.846-.947-2.845-.947-3.175-1.536-3.175-1.536-2.25-1.368-2.248-1.368-2.389-1.81-2.389-1.81-2.383-2.468-2.382-2.468-1.245-1.749-1.244-1.749-1.044-2.087-1.043-2.088-.551-1.984-.552-1.985-.278-2.471-.277-2.472.273-2.687.273-2.688.532-2.072.533-2.072.909-2.23.909-2.23 1.497-2.372 1.497-2.372 1.796-1.66 1.796-1.661 1.062-.593 1.06-.594-.633 1.746-.633 1.746-.159 1.89-.158 1.89.446 3.038.447 3.037.94 2.916.94 2.916 1.168 2.506 1.169 2.507 1.484 2.487 1.484 2.488 1.902 2.546 1.901 2.547 2.388 2.646 2.387 2.646 2.089 1.87 2.088 1.871 2.117 1.679 2.116 1.678 2.701 1.785 2.7 1.784 3.65 1.85 3.65 1.85 2.513.847 2.514.847.396.134.397.135-1.455.516-1.455.516-1.942.38-1.941.381-3.615-.025-3.615-.026zm-52.861-6.89.02-.508.14.348.139.347-.16.16-.16.16zm99.859-3.021 1.033-1.059h.265l-1.033 1.059-1.034 1.058h-.264zm1.455-1.423v-.1l.463-.363.463-.363-.363.463-.363.463h-.2zm-25.29-10.212-1.08-.229-2.095-.694-2.094-.693-2.91-1.427-2.911-1.427-2.381-1.555-2.381-1.555-2.646-2.267-2.646-2.267-1.471-1.685-1.47-1.686-1.082-1.455-1.08-1.455-1.319-2.313-1.318-2.313-.94-2.847-.94-2.846-.284-2.07-.283-2.07v-2.607h1.34l1.645.547 1.646.547 1.852 1.09 1.852 1.092 6.35 4.261 6.35 4.261 3.781 2.068 3.782 2.069 4.156 1.706 4.156 1.706 3.25 1.07 3.252 1.069.916.863.916.864v2.076l-.41 1.577-.411 1.577-.846 1.677-.846 1.678-.871 1.023-.871 1.023-1.754.864-1.754.863-2.535.06-2.534.058zm42.567-29.64v-1.455l.11.727.11.728-.11.727-.11.728zm-17.358-7.67-2.33-.226-2.08-.422-2.082-.421-2.6-.75-2.6-.749-2.514-1.002-2.514-1.002-2.1-1.05-2.1-1.052-2.123-1.316-2.123-1.317-2.127-1.665-2.127-1.665-2.385-2.48-2.384-2.481-1.24-1.747-1.238-1.746-1.212-2.355-1.213-2.354-.785-2.445-.784-2.445-.399-2.286-.398-2.286v-6.981l.426-2.494.426-2.494.897-2.747.897-2.748 1.204-2.458 1.204-2.458 1.816-2.732 1.816-2.732 2.113-2.264 2.114-2.264 1.811-1.479 1.812-1.478 2.01-1.328 2.01-1.328 2.62-1.306 2.62-1.306 1.853-.684 1.852-.685 1.874-.544 1.875-.544 3.285-.56 3.284-.561 4.366.137 4.366.137 2.328.433 2.327.432 2.575.876 2.574.875 2.506 1.214 2.506 1.214 1.506 1.008 1.505 1.009 2.158 1.705 2.158 1.706 1.987 2.263 1.987 2.263 1.682 2.525 1.683 2.525 1.184 2.502 1.184 2.503.818 2.445.818 2.445.576 2.582.576 2.582.01 5.688.01 5.689-.475 2.34-.476 2.34-.894 2.73-.894 2.73-1.074 2.25-1.074 2.252-1.642 2.468-1.642 2.469-2.66 2.66-2.66 2.66-2.457 1.634-2.456 1.633-1.91.918-1.909.918-2.778.924-2.778.924-2.381.415-2.382.414-3.44.113-3.439.112zm-10.37-35.024 1.323-.62 1.236-1.328 1.236-1.329.784-1.555.783-1.554.71-2.25.71-2.248.397-1.852.397-1.853.152-2.93.151-2.929-.443-1.992-.443-1.993-.85-1.417-.851-1.418-1.059-.72-1.058-.72-1.11-.283-1.109-.282h-1.862l-1.468.55-1.468.549-1.262 1.236-1.26 1.237-1.104 2.13-1.102 2.13-.667 2.3-.666 2.299-.276 2.714-.276 2.714.263 2.077.264 2.076.294 1.095.295 1.094.634 1.251.634 1.251.859.978.858.978 1.325.617 1.325.617h2.381zm-82.996 32.459.347-.14.16.16.16.16-.507-.02-.508-.021zm131.68-3.524.478-.529h.265l-.479.53-.479.529h-.264zm-89.984-28.112-.504-.595.595.504.596.504v.183h-.183zm101.588-2.58v-2.513l.1 1.257.098 1.257-.099 1.257-.099 1.256zM-203.36 83.522l.469-.121.325.131.326.132-.794-.01-.794-.01zm7.817.003.347-.139.16.16.16.16-.507-.021-.507-.021zm-2.646-7.673.348-.139.16.16.16.16-.508-.021-.507-.02zm46.602-11.924-.911-.992.992.912.992.912v.16h-.16zm79.885-.794-.363-.463.463.364.463.363v.2h-.2z" style="fill:#fcbe25;stroke-width:1.00509;stroke-dasharray:none" transform="translate(746.723 753.495)scale(2.09107)"/><path d="m-204.846 206.88-1.017-.363-.662-.618-.661-.618-.425-.794-.425-.794-.109-7.186-.11-7.185.31-4.06.31-4.058.518-3.837.518-3.836.415-2.25.414-2.248.887-3.704.888-3.704.964-3.175.963-3.175 1.467-3.705 1.466-3.704 1.424-2.84 1.423-2.84v-.2l-2.58-.19-2.58-.188-2.91-.524-2.91-.524-2.646-.625-2.646-.626-2.886-.965-2.885-.966-2.669-1.063-2.669-1.063-3.706-1.851-3.706-1.85-3.307-2.213-3.307-2.212-2.16-1.933-2.158-1.933-1.566-1.875-1.566-1.874-.957-1.577-.958-1.576-.572-1.312-.572-1.311-.531-1.72-.531-1.72-.012-3.307-.011-3.307.453-1.72.454-1.72 1.29-2.646 1.29-2.645 1.861-2.271 1.86-2.27 2.326-1.928 2.324-1.928 3.095-1.831 3.095-1.832 2.835-1.188 2.835-1.188 2.272-.803 2.272-.804 3.572-.91 3.572-.911 3.572-.515 3.572-.515 3.175-.17 3.175-.17 3.572.282 3.572.28 2.351.414 2.352.414.11-.11.11-.11-1.214-1.876-1.213-1.875-1.04-2.595-1.042-2.594-.73-2.903-.732-2.902.01-4.498.008-4.498.583-1.566.582-1.566.641-1.095.642-1.095 1.228-1.132 1.228-1.131 1.66-.777 1.66-.777 1.959-.419 1.96-.418 3.307.154 3.307.154 2.294.519 2.294.518 2.41.807 2.408.807 2.828 1.334 2.829 1.335 2.92 1.947 2.92 1.947 2.325 2.18 2.326 2.179 1.541 1.886 1.541 1.886 1.512 2.343 1.511 2.343.707-.642.707-.643 1.714-1.518 1.714-1.517 2.916-1.958 2.916-1.959 3.513-1.735 3.512-1.736 3.5-1.167 3.498-1.166 3.572-.713 3.572-.713 4.895-.133 4.895-.133 3.042.44 3.043.441 2.913.755 2.913.755 2.776 1.1 2.775 1.1 2.511 1.321 2.51 1.322 2.517 1.692 2.516 1.692 2.565 2.33 2.564 2.329 1.572 1.855 1.572 1.855 1.46 2.182 1.46 2.182 1.215 2.35 1.214 2.352.89 2.343.89 2.343.7 2.665.698 2.666.396 2.626.396 2.627v4.365l.002 4.366-.29 2.381-.29 2.381-.737 2.927-.737 2.926-1.106 2.762-1.106 2.762-1.316 2.382-1.315 2.38-1.695 2.271-1.695 2.27-2.198 2.228-2.198 2.229-2.18 1.639-2.181 1.639-1.656.97-1.656.971-2.597 1.167-2.596 1.167-2.46.842-2.461.842-.152 3.98-.152 3.98-.43 2.38-.432 2.382-.635 2.27-.635 2.268-.906 2.375-.906 2.374-1.31 2.633-1.308 2.632-1.544 2.495-1.543 2.495-1.787 2.377-1.787 2.376-1.936 2.14-1.935 2.14-2.648 2.445-2.649 2.445-2.762 1.996-2.763 1.995-2.947 1.711-2.946 1.711-3.287 1.478-3.286 1.478-3.922 1.312-3.922 1.312-4.28 1.036-4.28 1.035-4.967.937-4.966.937-5.485.786-5.484.786-5.821.53-5.821.53-4.895.272-4.895.27-7.408-.01-7.408-.012zm60.988-13.49 1.942-.38 1.455-.516 1.455-.516-.397-.135-.396-.134-2.514-.847-2.514-.847-3.649-1.85-3.65-1.85-2.7-1.784-2.7-1.785-2.117-1.678-2.117-1.679-2.088-1.87-2.089-1.871-2.387-2.646-2.388-2.646-1.901-2.547-1.902-2.546-1.484-2.488-1.484-2.487-1.169-2.507-1.168-2.506-.94-2.916-.94-2.916-.447-3.037-.446-3.038.158-1.89.159-1.89.633-1.746.634-1.746-1.061.594-1.062.593-1.796 1.66-1.796 1.661-1.497 2.372-1.497 2.373-.91 2.23-.908 2.23-.533 2.071-.532 2.072-.273 2.688-.273 2.687.277 2.472.278 2.471.552 1.985.55 1.984 1.044 2.088 1.044 2.087 1.244 1.75 1.245 1.748 2.382 2.468 2.383 2.468 2.39 1.81 2.388 1.81 2.249 1.368 2.249 1.368 3.175 1.536 3.175 1.536 2.845.947 2.846.947 1.618.42 1.617.419 2.284.355 2.283.356 3.615.026 3.615.025zm19.613-22.325 1.754-.864.87-1.023.872-1.023.846-1.678.846-1.677.41-1.577.411-1.577v-2.076l-.916-.864-.916-.863-3.251-1.07-3.251-1.069-4.156-1.706-4.156-1.706-3.782-2.069-3.781-2.068-6.35-4.26-6.35-4.262-1.852-1.091-1.852-1.091-1.646-.547-1.645-.547h-1.34v2.607l.283 2.07.284 2.07.94 2.846.94 2.847 1.318 2.313 1.318 2.313 1.081 1.455 1.081 1.455 1.47 1.686 1.472 1.685 2.646 2.267 2.645 2.267 2.382 1.555 2.381 1.555 2.91 1.427 2.91 1.427 2.095.693 2.095.694 1.08.229 1.08.228 2.535-.059 2.535-.059zm28.896-36.971 2.38-.415 2.779-.924 2.778-.924 1.91-.918 1.909-.918 2.456-1.633 2.456-1.633 2.66-2.66 2.661-2.661 1.642-2.469 1.642-2.468 1.074-2.251 1.074-2.252.894-2.729.894-2.73.476-2.34.476-2.34-.01-5.689-.011-5.688-.576-2.582-.576-2.582-.818-2.445-.818-2.445-1.184-2.503-1.184-2.502-1.683-2.525-1.682-2.525-1.987-2.263-1.987-2.263-2.158-1.706-2.158-1.705-1.505-1.009-1.506-1.008-2.506-1.214-2.506-1.214-2.574-.875-2.575-.876-2.327-.432-2.328-.433-4.366-.137-4.366-.137-3.284.56-3.285.56-1.875.545-1.874.544-1.852.685-1.853.684-2.62 1.306-2.62 1.306-2.01 1.328-2.01 1.328-1.812 1.478-1.811 1.479-2.114 2.264-2.113 2.264-1.816 2.732-1.816 2.732-1.204 2.458-1.204 2.458-.897 2.748-.897 2.747-.426 2.494-.426 2.494v6.98l.398 2.287.399 2.286.784 2.445.785 2.445 1.213 2.354 1.212 2.355 1.239 1.746 1.239 1.747 2.384 2.48 2.385 2.481 2.127 1.665 2.127 1.665 2.123 1.317 2.123 1.316 2.1 1.051 2.1 1.051 2.514 1.002 2.513 1.002 2.6.75 2.601.749 2.081.421 2.081.422 2.33.226 2.33.225 3.44-.112 3.44-.113zm-26.99-34.607-1.325-.617-.858-.978-.859-.978-.634-1.251-.634-1.251-.295-1.094-.294-1.095-.264-2.076-.263-2.077.276-2.714.276-2.714.666-2.3.667-2.3 1.102-2.13 1.103-2.13 1.261-1.236 1.262-1.236 1.468-.55 1.468-.549h1.862l1.11.282 1.11.283 1.058.72 1.058.72.85 1.418.85 1.417.444 1.993.443 1.992-.151 2.93-.152 2.93-.397 1.852-.398 1.852-.71 2.249-.709 2.249-.783 1.554-.784 1.555-1.236 1.329-1.236 1.328-1.323.62-1.323.62h-2.381zm-65.663 32.21 2.959-.425 3.038-.776 3.038-.776 2.386-.942 2.386-.942 2.155-1.133 2.156-1.133 2.726-1.798 2.726-1.797 2.811-2.797 2.812-2.797.997-1.539.998-1.538.695-1.637.694-1.636.007-2.381.007-2.382-.687-1.455-.688-1.455-1.056-1.328-1.056-1.327-4.08-3.083-4.082-3.082-2.633-1.655-2.633-1.655-2.92-1.387-2.919-1.387-1.852-.698-1.852-.697-2.91-.773-2.91-.773-2.647-.457-2.646-.456-6.35-.001-6.35-.002-3.44.59-3.439.591-2.925.763-2.925.762-2.63.979-2.632.978-2.41 1.148-2.41 1.149-2.353 1.578-2.352 1.578-1.821 1.809-1.821 1.809-.884 1.323-.883 1.323-.694 1.709-.693 1.709-.14 1.863-.141 1.863.43 1.72.431 1.72.93 1.851.93 1.852 1.687 1.985 1.687 1.984 2.346 1.896 2.346 1.896 1.732 1.053 1.733 1.053 2.63 1.319 2.63 1.319 3.614 1.353 3.614 1.353 3.794.925 3.795.924 2.778.373 2.778.372 4.715.027 4.714.028zm31.657-39.46.321-2.58.878-3.439.879-3.44.84-2.116.841-2.117 1.299-2.529 1.298-2.529 1.433-2.084 1.432-2.084-.697-.943-.697-.943-1.547-1.921-1.547-1.921-2.121-1.836-2.121-1.836-2.556-1.714-2.556-1.713-2.5-1.241-2.501-1.241-2.337-.903-2.337-.902-2.835-.705-2.836-.704-3.06-.016-3.062-.016-1.554.795-1.554.794-.663 1.288-.663 1.289-.11 2.32-.111 2.318.435 2.553.435 2.553.685 2.173.686 2.173.972 2.25.972 2.248.94 1.456.94 1.455 1.562 1.955 1.563 1.955 2.456 2.05 2.456 2.052 4.268 2.608 4.269 2.609 3.858 2.572 3.86 2.572.033.008.033.008z" style="fill:#111;fill-opacity:1;stroke-width:1.00509;stroke-dasharray:none" transform="translate(746.723 753.495)scale(2.09107)"/><path d="M176.913 565.82c-67.34-17.646-112.243-53.83-112.243-90.451 0-26.925 31.282-54.2 82.634-72.047 19.62-6.819 30.82-8.113 70.06-8.095 42.36.018 48.804.902 69.264 9.504 30.496 12.82 59.38 30.578 78.419 48.21 24.72 22.895 21.48 42.641-12.164 74.11-43.88 41.046-110.916 55.815-175.97 38.769z" style="fill:#f9f9f9;fill-opacity:1;stroke:#000;stroke-width:3.79875;stroke-dasharray:none;stroke-opacity:0" transform="translate(210.032 711.753)scale(.55326)"/><path d="M346.552 410.957c-15.725-9.633-35.573-24.035-44.106-32.005-19.214-17.944-33.916-49.016-35.893-75.857-1.276-17.312-.33-21.419 6.504-28.253 6.99-6.99 10.32-7.691 26.45-5.568 33.46 4.404 79.737 29.641 101.048 55.106l9.883 11.809-11.327 21.251c-6.23 11.688-14.171 32.452-17.648 46.142l-6.32 24.89zM192.214 567.843c-42.16-7.99-84.023-27.274-105.22-48.471-13.853-13.853-23.346-37.683-20.383-51.17 2.427-11.052 28.186-43.468 31.727-39.927 1.15 1.15 3.107-.556 4.348-3.792 1.242-3.235 3.575-5.069 5.184-4.074 1.61.995 5.482-.747 8.606-3.87s5.679-4.698 5.679-3.5c0 1.2 3.637.16 8.083-2.31s8.892-4.644 9.88-4.832 10.689-2.42 21.557-4.959c13.002-3.038 35.12-4.054 64.67-2.97 47.345 1.736 51.161 2.276 63.3 8.96 4.186 2.306 8.632 3.172 9.88 1.924s2.269-.492 2.269 1.68c0 3.76 10.477 8.895 14.455 7.086 1.035-.47 5.785 2.782 10.558 7.228 4.772 4.447 10.393 8.108 12.49 8.137 2.098.028 12.485 8.92 23.083 19.76 17.41 17.806 19.052 20.837 17.006 31.385-1.245 6.422-2.506 13.316-2.803 15.321-.599 4.052-38.67 42.262-44.284 44.446-11.616 4.517-19.727 9.04-19.727 11.002 0 1.238-3.614 2.524-8.03 2.856-4.417.333-8.597 2.304-9.29 4.38-.691 2.076-2.736 2.861-4.544 1.744s-5.278-.8-7.713.706c-11.06 6.835-62.22 8.672-90.781 3.26z" style="fill:#fff;fill-opacity:1;stroke:#000;stroke-width:3.79875;stroke-dasharray:none;stroke-opacity:0" transform="translate(210.032 711.753)scale(.55326)"/><path d="M346.552 410.957c-15.725-9.633-35.573-24.035-44.106-32.005-19.214-17.944-33.916-49.016-35.893-75.857-1.278-17.337-.335-21.414 6.543-28.292 6.873-6.872 10.586-7.734 25.65-5.95 32.351 3.832 80.542 30.115 101.81 55.527l9.882 11.809-11.327 21.251c-6.23 11.688-14.171 32.452-17.648 46.142l-6.32 24.89z" style="fill:#fff;fill-opacity:1;stroke:#000;stroke-width:3.79875;stroke-dasharray:none;stroke-opacity:0" transform="translate(210.032 711.753)scale(.55326)"/></g><path d="M172.603 761.263h508.138v508.138H172.603z" style="display:inline;fill:none;stroke:none;stroke-width:3.86224;stroke-linecap:round"/></g></svg>